# xmcd
#
# Track frame offsets:
#	150
#	14730
#	30287
#	48380
#	65170
#	77780
#	92255
#	109820
#	126105
#
# Disc length: 1983 seconds
#
# Revision: 1
# Processed by: cddbd v1.5.1PL0 Copyright (c) Steve Scherf et al.
# Submitted via: audiograbber 1.83.01
#
DISCID=6e07bd09
DTITLE=Asleep At The Wheel - Superhits
DYEAR=1999
DGENRE=Country
TTITLE0=Boot Scootin Boogie
TTITLE1=Dance With Who Brung You
TTITLE2=(Get Your Kicks) On Route 66
TTITLE3=Miles And Miles Of Texas
TTITLE4=Keepin' Me Up Nights
TTITLE5=Quittin' Time
TTITLE6=Texas Fiddle Man
TTITLE7=Black And White Rag
TTITLE8=Jambalaya
EXTD=
EXTT0=
EXTT1=
EXTT2=
EXTT3=
EXTT4=
EXTT5=
EXTT6=
EXTT7=
EXTT8=
PLAYORDER=
